<?xml version="1.0" encoding="utf-8"?>
<!-- Generator: Adobe Illustrator 18.1.1, SVG Export Plug-In . SVG Version: 6.00 Build 0)  -->
<!DOCTYPE svg PUBLIC "-//W3C//DTD SVG 1.1//EN" "http://www.w3.org/Graphics/SVG/1.1/DTD/svg11.dtd">
<svg version="1.1" id="Ebene_2" xmlns="http://www.w3.org/2000/svg" xmlns:xlink="http://www.w3.org/1999/xlink" x="0px" y="0px"
	 viewBox="0 0 2000 1082.1" enable-background="new 0 0 2000 1082.1" xml:space="preserve">
<g>
	<path fill="#666666" d="M1302.8,314.6C1302.9,314.6,1302.8,314.6,1302.8,314.6C1302.8,314.6,1302.8,314.6,1302.8,314.6z
		 M1060.1,366.2C1060.1,366.4,1060.1,366.2,1060.1,366.2L1060.1,366.2z"/>
	<path fill="#666666" d="M1060.1,366.2C1060,366.2,1060,366.3,1060.1,366.2C1060.1,366.2,1060.1,366.2,1060.1,366.2z"/>
	<path fill="#666666" d="M803.6,379.1c-0.2,0-1.5,0.4-1.5,0.5C802.5,379,802.9,379.3,803.6,379.1z"/>
	<path fill="#666666" d="M804.2,379.1C804.3,379.1,804,379.1,804.2,379.1C804.3,379.1,804.2,379.1,804.2,379.1z"/>
	<path fill="#666666" d="M1060.1,366.5C1060,366.5,1060,366.4,1060.1,366.5C1060,366.5,1060.1,366.4,1060.1,366.5z"/>
	<path fill="#666666" d="M1060.2,366.5C1060.3,366.5,1060.1,366.4,1060.2,366.5C1060.2,366.5,1060.2,366.5,1060.2,366.5z"/>
	<path fill="#666666" d="M1060.2,366.5C1060.4,366.5,1060.3,366.5,1060.2,366.5C1060.3,366.5,1060.2,366.5,1060.2,366.5z"/>
	<path fill="#666666" d="M1302.9,314.5C1302.9,314.5,1302.9,314.5,1302.9,314.5C1302.9,314.5,1302.9,314.5,1302.9,314.5z"/>
	<path fill="#666666" d="M620.5,408c19.4-10.4,46.6-10,68.1-9.9c26.1,0.1,52.3,2.3,78.2,5.3c15.3,1.8,30.5,3.9,45.6,6.4
		c3.1,0.5,6.1,1.1,9.2,1.6c5.3,0.7,8.8,2.7,8.7-3.1c-0.2-7.7-7.6-25.3,6.3-26.9c6.9-0.8,13.6,6.9,19.2,9.9
		c52.4,27.9,113.9,43.2,173.2,43.5c16,0.1,32.6-0.7,48.1-5.1c12.7-3.6,24.2-10.4,34.9-18.1c4.7-3.3,11.5-11.3,18.2-8.8
		c10.5,4,9.8,26.8,10,35.5c0.2,7.2-0.3,14.4-0.8,21.6c-0.1,1.6-1.5,6.8-0.6,8.3c1.3,2.2,2.2-0.1,4.9-1.3c14-5.9,31.7-8.2,46.6-11.3
		c14.6-3.1,29.5-5.7,44.5-6c29.3-0.6,59.3,1.7,88.2,6.1c10.7,1.6,23,2.9,31.6,9.9c5.5,4.5,14.6,13.9,8.7,21.5
		c-2.8,3.7-12.9,4.8-16.1,0.9c-2.2-2.7-0.7-3.1,1-4.9c1.2-1.3,3.6-0.9,4.3-2.6c1-2.1-2.5-7.5-4-8.9c-6.7-6.5-21.1-6.6-29.9-7.8
		c-15.4-2-30.9-3.1-46.4-3.7c-33.4-1.3-63.9,2.3-96.1,11.3c-13.3,3.7-28.7,12-42.6,12.8c-7.7,0.4-10.1-5-10.2-11.8
		c-0.2-13.3,2.4-26.4,1.6-39.8c-0.5-7.6-0.9-12.6-8.9-8.3c-7.2,3.9-14.6,7.2-22.3,9.9c-19,6.8-38.7,8.7-58.9,8.9
		c-51.9,0.3-101.8-10.7-150.1-29.1c-7.2-2.7-14.3-5.5-21.4-8.4c-2.4-1-18.1-5.6-18.3-6.5c2.4,8.8,2.8,25-10.1,25.9
		c-5.1,0.4-11.2-2-16.1-3c-21.7-4.4-43.5-8.6-65.5-11.4c-27.2-3.5-55-5.9-82.4-4.5c-11.4,0.6-23,1.8-34,4.8
		c-3.9,1.1-7.8,3.5-11.7,4.4C621,416.3,614.4,411.7,620.5,408C620.4,408.1,618.5,409.3,620.5,408z"/>
	<path fill="#666666" d="M1211.8,332.8c0.6-6.5,11.9-14.6,13.7-4.6C1226.9,335.6,1212.3,341.3,1211.8,332.8z"/>
	<g>
		<path fill="#666666" d="M1257,560.7L1257,560.7C1257,560.6,1257,560.6,1257,560.7z"/>
		<path fill="#666666" d="M1100.9,550.1c-11,2.3-25.7-3-36.4-5.4c-9.5-2.1-18.9-4.5-28.3-7.1c-4.1-1.1-10.3-4.2-14.4-2.4
			c-3.3,1.5-4.3,5.7-7,7.8c-2.7,2.1-6.8,2.8-10.1,3.3c-3.5,0.5-6.8,0.3-10.2-0.4c-7.9-1.6-18.4-10.7-26.4-9.8
			c-5.1,0.6-4,3.3-6.4,6.4c-2.4,3.2-7.8,6.4-11.7,7.1c-1,0.2-1.8,0.1-2.8,0.1c-16.5,0.6-34.2-3.2-50.7-4.2
			c-14.3-0.9-28.7-1.6-43-2.2c-25.8-1-51.6-1.7-77.4-1.7c-40.1,0-80.3,1.3-120.3,4c-4.2,0.3-17.8-1-20.9,1.6c-4,3.3-1,4,2.2,4.7
			c6.6,1.3,14.8-0.2,21.5-0.3c7.8-0.1,15.7-0.2,23.5-0.2c26.9-0.1,53.8,0,80.7,0.6c27.2,0.6,54.4,1.6,81.6,3
			c24.1,1.2,48.1,2.5,72.2,4.2c10.4,0.7,23.1,3.8,33.7,2.5c5.7-0.7,11.3-3.7,15.7-7.2c1.2-0.9,4.1-5,5.3-5.3
			c1.9-0.5,9.6,4.5,11.9,5.3c5.5,2.1,11.4,3.6,17.3,3.5c5.9,0,12.4-1.3,17.7-3.9c2.8-1.4,4.5-3.6,7-5.1c4.7-2.8-0.3-1.4,4.1-1.5
			c1.9,0,5,1.5,6.9,2c10.6,3.1,21.3,6.3,32,8.9c10.6,2.6,25.4,7.4,36.2,3.7c5.3-1.8,10.2-7.4,10.9-13c8,2.4,50.8,20,53.7-0.3
			c12.8,3.7,25.5,7.7,37.9,12.8c8.4,3.5,16.8,6.6,26,7.5c8.4,0.9,21.1,0.8,24.5-9c8-23.1-31.6-31.2-45.8-32.3
			c-4.1-0.3-10.2-1.3-13.6,1.8c-2.9,2.6-4.3,8.8-1.1,11.9c-11.2-2.9-25.5-8-37.3-8.4c-7.5-0.2-9.5,7.3-4.4,11.6
			c-0.2-0.1-0.2-0.1-0.6-0.1c1,0.5,1.5,0.9,2.1,1.9c-8.1,1.1-17.5-1.5-25.5-2.9c-5.5-1-19.7-6.5-24.3-1.7 M961.5,543.3
			C961.5,542.9,961.5,543.6,961.5,543.3C961.5,543.3,961.5,543.2,961.5,543.3z M973.1,542.8C973.1,543.1,973.1,542.3,973.1,542.8
			C973.1,542.9,973.1,542.4,973.1,542.8z M967.5,547.8C967.5,547.8,967.5,547.8,967.5,547.8L967.5,547.8z M1016.9,541
			C1017,541,1017,541,1016.9,541L1016.9,541z M1100.4,550.6C1100.4,550.6,1100.4,550.6,1100.4,550.6L1100.4,550.6z M1228.4,550.9
			c-9.2-1.8-17.9-5.6-27-8.1c5-1.3,2.3-3.4,8.5-1.7c3.8,1,7.6,2.3,11.4,3.5c5.4,1.8,10.9,3.5,15.2,7.3
			C1236.3,552.5,1229,551,1228.4,550.9C1226.3,550.5,1230.4,551.3,1228.4,550.9z M1240.3,556.6c0,0.1,0,0.1,0,0.1
			C1240.4,556.8,1240.4,556.7,1240.3,556.6z M1243,551.6C1243,551.6,1243,551.6,1243,551.6L1243,551.6z"/>
		<path fill="#666666" d="M1154.7,544.6C1154.7,544.6,1154.7,544.6,1154.7,544.6C1154.7,544.6,1154.7,544.6,1154.7,544.6z"/>
	</g>
	<path fill="#666666" d="M892.6,128.1c-1.2-4-4.3-3.3-7.2-3.1c-6.3,0.6-12.1,2.6-18.6,2.3c-11.7-0.5-23.7-5.5-30.1-15.7
		c-7.6-12.1-4.6-28-0.2-40.7c0.9-2.6,5.2-8.7,4-12.1c-1.7-4.8-7.4-1.6-10.2,0.2c-11.1,7.4-19.2,20.4-23,32.8
		c-5.7,18.7-0.1,38.6,15.6,50.2c10.8,8,24.5,10.2,37.5,7.5c9.8-2,19.4-6.5,27.1-13C889.9,134.7,893.8,131.9,892.6,128.1
		C892.4,127.3,892.9,129,892.6,128.1z M834,58.9C834,58.9,834,58.9,834,58.9L834,58.9z M871.7,136.2c-15.9,6.4-34.4,5.7-46.9-6.8
		c-17.1-17-9.8-43.8,4.7-60.1c-6,15.2-9.6,34.1,0,48.6c1.9,2.9,4.3,5.4,6.9,7.7c5.1,4.4,11,7.4,17.6,9
		C858.3,135.7,869.6,137.2,871.7,136.2C870.7,136.6,871.9,136.1,871.7,136.2z M888.7,132.9L888.7,132.9
		C888.9,132.9,888.8,132.9,888.7,132.9z"/>
	<path fill="#666666" d="M1398.9,426.8c-5.2-10.7-32-8.5-41.9-8.8c-20.8-0.7-41.6-1.3-62.4-1.1c-20.5,0.2-41,1.6-61.4,3.6
		c-10.1,1-20.2,2.1-30.2,3.5c-9.5,1.2-21.1,1.1-29.9,5c-0.1-6.2-0.6-12.4-1-18.6c-0.2-2.8-0.9-6.4-0.5-9.2c0.8-4.4-1.3-2.4,2.7-4.8
		c4.1-2.4,10.7-3.1,15.2-4.6c7.4-2.4,14.8-4.9,22-7.8c24.3-9.9,47.7-23.5,70-37.4c11.9-7.4,34.8-17.9,36-34.7
		c0.6-8.6-4.9-12.8-12.7-11.7c-13.2,1.9-26.3,5.8-39.5,8c-22.9,3.8-45.9,5.5-69.1,5.4c-6.8,0-13.8-1.3-20.6-1
		c-1.5,0.1-2.8,0.3-4.1,0.8c-41.4-12.5-84.6-20.4-127.6-24.3c-2.2-0.2-5.7,0.2-7.6-0.7c-2.1-1-1.2-1.2-2.8-3
		c-3.2-3.8-5.1-8.6-8.5-12.3c-3.5-3.9-7.6-7.4-12-10.3c-5.2-3.5-15.7-5.8-12.3,4.3c2.3,6.8,11,14.3,15.7,19.7
		c-23.7-1.9-47.4-3.9-71.2-5.1c-8.2-0.4-23.9,1.9-30.6-1.9c-5.3-3.1-8.5-9.9-14.3-13.1c-5.9-3.2-19.4-7.4-24.1-2.2
		c-6.7,7.5,12.3,12.1,16.3,13.8c4.8,2,9.5,7.9,14.5,10.7c10.1,5.7,26.5,3.5,37.7,3.9c30.7,1.3,61.4,2.1,92,4.6
		c28.1,2.3,55.9,6.9,83.3,13.3c13.8,3.3,27.6,7,41.1,11.4c-0.3,0.5-0.7,1-1,1.5c-61.4-12.5-123.5-19-186.2-19.8
		c-15.1-0.2-30.2-0.3-45.3,0.2c-8,0.3-14.4,4.6-19.2,11.1c-3.6,4.9-9,20.2,3.2,17c3.9-1,7.1-4.9,9.4-7.9c1.6-2.1,3-4.6,4.1-7
		c1.9-4.4,0.9-4.1,5.6-4.7c16.3-1.9,34.5,0.8,50.8,1.3c20.1,0.7,40.2,1.4,60.3,2.9c-2.1,1.7-4.8,4.9-6.7,6.2
		c-2.8,2.3-7.7,4.6-9.7,7.6c-3.8,5.9,1.3,8,6.6,6.9c4.7-0.9,9.1-3.1,12.9-6c3.4-2.5,6.5-5.6,9-9c4-5.5,4.7-4.3,12-3.5
		c20.5,2.2,41,4.9,61.5,8c8.8,1.3,17.5,2.7,26.2,4.1c-13.1,16.1-32.6,22.8-52.6,28.1c-6.8,1.8-12.2,1.3-19.3-0.2
		c-7.5-1.6-15-6.7-22.8-6.9c-7.6-0.2-14.4,5.4-20.9,8.5c-8,3.8-17.1,3.9-25.9,3.9c-26.9,0.1-55.2-3.3-81.3-10
		c-26.8-6.9-52.2-19.1-76.9-31.3c-10.5-5.2-21.5-13-32.7-16.3c-5.9-1.7-10.5,2.3-12.6,8.2c-3.1,8.6-0.2,20.7-0.4,29.7
		c-0.1,5.1-0.7,10.1-1.7,15.1c-0.8,4.5-1.7,15.9-5.6,19.1c-2.6,2.1-11.1,1-14.4,1c-6.9,0-13.8,0-20.6-0.1
		c-13.9-0.1-27.9-0.2-41.8-0.3c-25.2-0.2-50.5-0.9-75.7,0.4c-4.4,0.2-62.3,7.1-55.2,17.5c2.7,3.9,20.4-5.6,24-6.4
		c12.5-3,25.4-3.9,38.1-4.1c30.2-0.6,60.5,0.8,90.7,2.2c15.3,0.7,30.7,1.1,46,2.4c4.9,0.4,10.5,2.3,15.1,0.2
		c10.3-4.7,14.4-23.4,16.6-33.2c2.6-11.5,2.4-23.5,1.5-35.2c36.1,18,72.8,38.4,112.5,46.9c20.1,4.3,40.6,7.4,61.1,8.5
		c14.3,0.8,31,1.9,44.3-4.4c4.8-2.3,9.5-6.5,14.8-7.5c6.1-1.1,14,1.8,20,3c14,2.7,23.1,0.9,36.6-3.3c14-4.4,28.9-9.6,40.2-19.4
		c7.7-6.7,14.5-18.9,24.5-21.3c10.8-2.6,23.2-2.1,34.3-3.1c9.7-0.9,19.4-2,29-3.2c20.2-2.7,40.2-6.9,60.4-9.1
		c0.6-0.1-1.6,4.2-2.3,5.1c-5.2,6.8-14.9,11.6-22,16.2c-18.5,11.9-37.7,23-57.3,33c-17,8.7-35.3,15.9-54,20.2
		c-9.6,2.2-10.1,7-10.6,17.9c-0.5,12.1-2.7,27-1.1,38.4c2.6,19.2,18.5-0.6,25-3.4c7.4-3.3,17.6-3.7,25.5-4.9c11-1.7,21.9-3.2,33-4.4
		c18.4-2.1,37-3.5,55.5-3.7c21.6-0.2,43.4,0.3,65,1.2c7.6,0.3,19.6-0.7,26.4,2.9c1.8,0.9,2.4,2.8,4.1,3.6
		C1395.6,434,1401.8,432.4,1398.9,426.8z"/>
	<path fill="#666666" d="M1027,537.3"/>
</g>
<g>
	<path fill="#666666" d="M225.5,826.3c-0.1,0.5-0.2,1.7-0.4,3.8c-0.2,2.1-0.4,4.4-0.6,6.9c-0.4,0-0.8,0-1.3,0c-0.5,0-0.9,0-1.3,0
		c-12.4,0-23.3-1.6-33-4.7c-9.6-3.1-17.5-7.6-23.7-13.6c-4.3-4.1-7.7-9-10.2-14.7c-2.5-5.7-3.8-12.3-3.8-19.6c0-6.6,1.2-12.6,3.7-18
		c2.5-5.4,5.7-10.2,9.7-14.2c5.8-5.9,13.6-10.5,23.5-14c9.8-3.4,20.3-5.2,31.5-5.2c0.6,0,1.2,0,1.9,0c0.7,0,1.2,0,1.5,0
		c0,0.9,0.2,2.4,0.3,4.4c0.2,2,0.3,4.2,0.5,6.5c-0.5,0-0.9,0-1.3,0c-0.4,0-0.8,0-1.3,0c-6.3,0-12.9,0.7-19.7,2.1
		c-6.8,1.4-12.7,3.5-17.6,6.3c-6.4,3.6-11.3,8.3-14.8,14c-3.4,5.7-5.2,11.8-5.2,18.4c0,6.8,1.5,13.1,4.6,18.7s8,10.3,14.7,14.1
		c5.5,3.1,11.6,5.4,18.4,6.8c6.8,1.4,13.5,2.1,20.2,2.1c0.3,0,0.8,0,1.4,0C224,826.4,224.8,826.3,225.5,826.3z"/>
	<path fill="#666666" d="M357.3,835.6h-12.5c0-3,0.1-8.6,0.2-16.8c0.1-8.2,0.1-18.4,0.1-30.6c-0.8,0-5.3,0-13.5,0
		c-8.3,0-14.5,0-18.6,0c-5,0-11,0-18,0c-7,0-10.8,0-11.4,0c0,14.1,0,24.7,0.1,32c0.1,7.2,0.1,12.4,0.2,15.4h-12.5
		c0-3,0.1-8.4,0.2-16.2c0.1-7.7,0.2-20.8,0.2-39.3c0-5.6,0-12.4-0.1-20.4c-0.1-8-0.2-16.6-0.3-25.9h12.5c0,7.7-0.1,15.3-0.2,22.7
		c-0.1,7.4-0.2,14.5-0.2,21.2c0.6,0,3.9,0,9.9,0c6,0,12.5,0,19.6,0c5.5,0,12.1,0,19.8,0c7.7,0,11.8,0,12.3,0
		c0-6.7-0.1-13.7-0.2-21.1c-0.1-7.4-0.2-15-0.2-22.7h12.5c-0.1,7.6-0.2,16.5-0.3,26.5c-0.1,10-0.1,18.2-0.1,24.5
		c0,14.9,0,26.3,0.2,34.2C357.2,827.1,357.3,832.6,357.3,835.6z"/>
	<path fill="#666666" d="M494.5,829.6l-9.5,7.8c-1.1-1.2-5.1-5.6-11.8-13.2c-6.8-7.6-17.2-19.5-31.4-35.7l0.1-0.7
		c1.9-0.5,4.5-1.6,7.7-3.3c3.2-1.7,5.9-3.5,8.1-5.5c1.9-1.7,3.5-3.9,4.9-6.4s2.1-5.9,2.1-10.2c0-3.9-1-7.3-3.1-10.1
		s-4.9-4.9-8.5-6.2c-2.9-1.1-6-1.8-9.3-2c-3.2-0.2-6.2-0.3-9-0.3c-1.8,0-3.2,0-4.2,0c-1,0-1.7,0-2.1,0c-0.1,9.6-0.2,18.1-0.2,25.5
		c0,7.4,0,12.5,0,15.6c0,6.9,0,16.4,0.1,28.3c0.1,11.9,0.1,19.4,0.2,22.4h-12.5c0-3,0.1-8.9,0.2-17.7c0.1-8.7,0.2-19.6,0.2-32.6
		c0-2.5,0-7.2,0-14.1c0-6.8-0.1-19.3-0.4-37.4c0.5,0,3,0,7.6-0.2c4.6-0.1,8.8-0.2,12.6-0.2c4.4,0,8.7,0.3,12.8,0.8s8.2,1.6,12.1,3.3
		c5,2.1,9,5.3,11.9,9.4c2.9,4.1,4.4,9,4.4,14.5c0,7.2-2.2,13.2-6.6,18c-4.4,4.8-8.6,8.3-12.5,10.7v0.4c6.9,8.1,14.6,16.5,22.8,25.1
		C489.5,824.3,493.9,828.9,494.5,829.6z"/>
	<path fill="#666666" d="M550.7,835.6h-12.5c0-3,0.1-8.5,0.2-16.3c0.1-7.8,0.2-19,0.2-33.6c0-5.8,0-13.3-0.1-22.7
		c-0.1-9.4-0.2-19.1-0.3-29.2h12.5c-0.1,7.2-0.2,15.7-0.3,25.3c-0.1,9.6-0.1,17.4-0.1,23.5c0,15.4,0,27.3,0.2,35.7
		C550.6,826.9,550.7,832.6,550.7,835.6z"/>
	<path fill="#666666" d="M660.6,807c0,5.2-1.2,9.8-3.7,13.7c-2.5,3.9-5.8,7.1-9.9,9.5c-3.8,2.2-8.2,3.9-13.1,5.1s-10.4,1.7-16.4,1.7
		c-3.2,0-6.6-0.1-10.1-0.3c-3.5-0.2-5.5-0.3-6-0.4l-0.6-10.9c0.7,0.1,2.7,0.3,5.9,0.6c3.2,0.3,7.1,0.4,11.5,0.4
		c2.7,0,6.2-0.4,10.4-1.1c4.3-0.7,7.5-1.6,9.8-2.7c3-1.5,5.3-3.2,6.9-5.3c1.6-2.1,2.4-4.7,2.4-7.9c0-3.4-0.8-6.3-2.4-8.6
		c-1.6-2.4-4.2-4.6-7.9-6.8c-2.4-1.4-5.5-3-9.3-4.8c-3.8-1.8-7.2-3.6-10.3-5.5c-5.2-3.1-8.9-6.6-11.1-10.3
		c-2.2-3.7-3.3-7.9-3.3-12.4c0-4.7,1-8.7,3-12.1c2-3.4,4.6-6.3,7.8-8.8c3.2-2.4,7.2-4.3,11.9-5.5c4.7-1.2,9.9-1.8,15.6-1.8
		c3.1,0,6.3,0.1,9.5,0.3c3.2,0.2,5.1,0.3,5.5,0.3l1.1,11c-0.5,0-2.3-0.2-5.5-0.5c-3.2-0.3-7.2-0.5-12-0.5c-2.8,0-5.8,0.3-8.8,0.9
		c-3,0.6-5.7,1.6-7.9,2.9c-2,1.2-3.7,2.8-5.2,4.9c-1.4,2.1-2.1,4.5-2.1,7.3c0,2.5,0.7,4.9,2.2,7.2c1.5,2.3,4.3,4.7,8.4,7.1
		c2.1,1.3,4.8,2.7,8.2,4.4c3.4,1.6,6.8,3.4,10.1,5.4c5.1,3,8.9,6.4,11.4,10.3C659.3,797.6,660.6,802,660.6,807z"/>
	<path fill="#666666" d="M781.6,744.6c-0.8,0-4.2,0-10.2-0.1c-6,0-15-0.1-27.1-0.1c-0.1,10.4-0.2,18.3-0.2,23.6
		c-0.1,5.4-0.1,12.7-0.1,22c0,8.9,0,18,0.1,27.2s0.1,15.3,0.2,18.4h-12.5c0.1-3,0.2-9.3,0.3-18.6c0.1-9.4,0.1-18.6,0.1-27.5
		c0-8.8,0-15.8,0-21c0-5.2-0.1-13.2-0.2-24c-10.8,0-19.5,0-26.2,0c-6.7,0.1-10.4,0.1-11.1,0.1v-10.5c5.2,0,11.6,0,19,0.1
		c7.5,0.1,15.4,0.1,23.9,0.1c12.3,0,22.5,0,30.7-0.1c8.2,0,12.7-0.1,13.3-0.1V744.6z"/>
	<path fill="#666666" d="M836,835.6h-12.5c0-3,0.1-8.5,0.2-16.3c0.1-7.8,0.2-19,0.2-33.6c0-5.8,0-13.3-0.1-22.7
		c-0.1-9.4-0.2-19.1-0.3-29.2H836c-0.1,7.2-0.2,15.7-0.3,25.3c-0.1,9.6-0.1,17.4-0.1,23.5c0,15.4,0,27.3,0.2,35.7
		C835.9,826.9,836,832.6,836,835.6z"/>
	<path fill="#666666" d="M979.5,831.6l-11.8,6.1c-0.2-0.6-1.8-4.3-4.9-11.3c-3-7-7-16-12-27h-45c-5.3,11.8-9.5,20.9-12.4,27.4
		c-2.9,6.5-4.5,10.1-4.8,10.9l-10.2-5.5c1.3-2.6,6.7-14.2,16.3-34.8c9.5-20.6,19.5-42.2,29.7-64.9h9.9
		c10.1,22.7,20.1,44.7,29.9,65.9C974,819.6,979.1,830.7,979.5,831.6z M946.5,789.7c-2.7-6.2-5.5-12.6-8.5-19.4
		c-3-6.7-6.1-13.8-9.4-21.1l-0.3,0.1c-2.5,5.6-5.6,12.4-9.2,20.5c-3.6,8.1-6.6,14.8-8.9,19.9l0,0.1L946.5,789.7L946.5,789.7z"/>
	<path fill="#666666" d="M1109,733.9c-0.1,8-0.2,17-0.3,27.3s-0.1,17.6-0.1,22.1c0,14.4,0,25.8,0.2,34.3c0.1,8.5,0.2,13,0.2,13.6
		l-10.1,4.9c-15.3-20.7-29.6-39.3-42.9-55.9c-13.3-16.6-21-26.2-23.1-28.8l-0.2,0.1c0,13.6,0.1,30.2,0.3,50
		c0.2,19.8,0.3,31.2,0.3,34.2h-11.9c0-1.3,0.1-5.8,0.2-13.5s0.2-18.5,0.2-32.4c0-5.5,0-12.9-0.1-22c-0.1-9.1-0.2-18.8-0.3-29.1
		l11.5-5.5c0.9,1.2,8.7,11,23.3,29.5c14.6,18.5,28.4,35.7,41.3,51.6l0.2-0.1c0-7.8-0.1-20.9-0.3-39.4c-0.2-18.4-0.3-32.1-0.3-41
		H1109z"/>
	<path fill="#666666" d="M1316,835.6h-12.5c0-3,0.1-8.6,0.2-16.8c0.1-8.2,0.1-18.4,0.1-30.6c-0.8,0-5.3,0-13.5,0
		c-8.3,0-14.5,0-18.6,0c-5,0-11,0-18,0c-7,0-10.8,0-11.4,0c0,14.1,0,24.7,0.1,32c0.1,7.2,0.1,12.4,0.2,15.4h-12.5
		c0-3,0.1-8.4,0.2-16.2s0.2-20.8,0.2-39.3c0-5.6,0-12.4-0.1-20.4c-0.1-8-0.2-16.6-0.3-25.9h12.5c0,7.7-0.1,15.3-0.2,22.7
		c-0.1,7.4-0.2,14.5-0.2,21.2c0.6,0,3.9,0,9.9,0s12.5,0,19.6,0c5.5,0,12.1,0,19.8,0c7.7,0,11.8,0,12.3,0c0-6.7-0.1-13.7-0.2-21.1
		c-0.1-7.4-0.2-15-0.2-22.7h12.5c-0.1,7.6-0.2,16.5-0.3,26.5c-0.1,10-0.1,18.2-0.1,24.5c0,14.9,0,26.3,0.2,34.2
		C1315.9,827.1,1316,832.6,1316,835.6z"/>
	<path fill="#666666" d="M1459.3,831.6l-11.8,6.1c-0.2-0.6-1.8-4.3-4.9-11.3c-3-7-7-16-12-27h-45c-5.3,11.8-9.5,20.9-12.4,27.4
		c-2.9,6.5-4.5,10.1-4.8,10.9l-10.2-5.5c1.3-2.6,6.7-14.2,16.3-34.8c9.5-20.6,19.5-42.2,29.7-64.9h9.9
		c10.1,22.7,20.1,44.7,29.9,65.9S1458.9,830.7,1459.3,831.6z M1426.3,789.7c-2.7-6.2-5.5-12.6-8.5-19.4c-3-6.7-6.1-13.8-9.4-21.1
		l-0.3,0.1c-2.5,5.6-5.6,12.4-9.2,20.5c-3.6,8.1-6.6,14.8-8.9,19.9l0,0.1L1426.3,789.7L1426.3,789.7z"/>
	<path fill="#666666" d="M1576.5,783.4c-0.1,3.6-0.2,7.9-0.3,12.8s-0.2,8.9-0.2,12.1c0,5.1,0,10.8,0.2,17.1s0.2,9.8,0.2,10.5
		c-0.5,0-2,0.2-4.6,0.3c-2.6,0.2-5.1,0.3-7.5,0.3c-12.1,0-22.7-1.3-31.9-3.9c-9.2-2.6-17.3-7.1-24-13.5c-4.2-4-7.6-8.9-10.1-14.7
		c-2.6-5.8-3.8-12.5-3.8-20c0-9.2,2.4-17.5,7.3-24.7s11.6-13.1,20.2-17.6c5.8-3,12.4-5.3,19.9-6.9c7.4-1.5,15.2-2.3,23.2-2.3
		c1.3,0,2.4,0,3.5,0c1.1,0,2.1,0,2.9,0l0.9,10.9c-0.2,0-1,0-2.4,0c-1.4,0-2.6,0-3.4,0c-7.8,0-14.9,0.7-21.3,2
		c-6.4,1.3-12.1,3.2-16.9,5.8c-6.5,3.4-11.7,8.1-15.4,14.1c-3.7,5.9-5.6,12.2-5.6,18.9c0,8.5,1.9,15.5,5.8,21c3.9,5.6,8.9,9.9,15,13
		c5.5,2.8,11.3,4.8,17.4,5.9s12.4,1.7,18.9,1.7c0-0.8,0-4.8-0.1-11.8c-0.1-7.1-0.2-17.4-0.3-31.1H1576.5z"/>
	<path fill="#666666" d="M1696.4,835.5c-0.5,0-3.8,0-10.1-0.1c-6.3,0-14.1-0.1-23.3-0.1c-6.4,0-12.3,0-17.7,0.1
		c-5.3,0.1-9.9,0.1-13.6,0.1c0.1-2.9,0.2-9.3,0.3-19.1c0.1-9.8,0.1-19.9,0.1-30.3c0-5.7,0-13.3-0.1-22.7c-0.1-9.4-0.2-19.2-0.3-29.2
		c3.6,0,8.1,0,13.5,0.1c5.4,0.1,11,0.1,16.7,0.1c9.7,0,17.5,0,23.6-0.1c6.1,0,9.4-0.1,9.9-0.1v10.6c-0.5,0-3.7,0-9.5-0.1
		c-5.9-0.1-13.1-0.1-21.8-0.1c-3.8,0-7.5,0-11.2,0s-6.5,0-8.7,0c0,5.7-0.1,11.4-0.2,17.1c-0.1,5.7-0.2,11.1-0.2,16.1
		c2.3,0,5,0,8.1,0c3.1,0,5.9,0,8.3,0c8.9,0,16.9,0,23.9-0.1c7-0.1,10.8-0.1,11.2-0.1v10.5c-0.4,0-4.6,0-12.5-0.1
		c-8-0.1-15.2-0.1-21.8-0.1c-2.4,0-5.3,0-8.7,0c-3.4,0-6.2,0-8.5,0c0,9.6,0,17.2,0.1,22.8c0,5.6,0.1,10.3,0.2,14.1
		c3,0.1,6.6,0.1,10.9,0.1c4.3,0,8.8,0,13.8,0c7.5,0,13.9,0,19-0.1c5.1,0,8-0.1,8.6-0.1V835.5z"/>
	<path fill="#666666" d="M1827.5,829.6l-9.5,7.8c-1.1-1.2-5.1-5.6-11.8-13.2c-6.8-7.6-17.2-19.5-31.4-35.7l0.1-0.7
		c1.9-0.5,4.5-1.6,7.7-3.3c3.2-1.7,5.9-3.5,8.1-5.5c1.9-1.7,3.5-3.9,4.9-6.4s2.1-5.9,2.1-10.2c0-3.9-1-7.3-3.1-10.1
		s-4.9-4.9-8.5-6.2c-2.9-1.1-6-1.8-9.3-2c-3.2-0.2-6.2-0.3-9-0.3c-1.8,0-3.2,0-4.2,0c-1,0-1.7,0-2.1,0c-0.1,9.6-0.2,18.1-0.2,25.5
		c0,7.4,0,12.5,0,15.6c0,6.9,0,16.4,0.1,28.3c0.1,11.9,0.1,19.4,0.2,22.4H1749c0-3,0.1-8.9,0.2-17.7c0.1-8.7,0.2-19.6,0.2-32.6
		c0-2.5,0-7.2,0-14.1c0-6.8-0.1-19.3-0.4-37.4c0.5,0,3,0,7.6-0.2c4.6-0.1,8.8-0.2,12.6-0.2c4.4,0,8.7,0.3,12.8,0.8s8.2,1.6,12.1,3.3
		c5,2.1,9,5.3,11.9,9.4c2.9,4.1,4.4,9,4.4,14.5c0,7.2-2.2,13.2-6.6,18s-8.6,8.3-12.5,10.7v0.4c6.9,8.1,14.6,16.5,22.8,25.1
		C1822.4,824.3,1826.9,828.9,1827.5,829.6z"/>
	<path fill="#666666" d="M536,1006.8h-8.8c0-2.1,0.1-6,0.2-11.5c0.1-5.5,0.1-13.4,0.1-23.6c0-4.1,0-9.4-0.1-16
		c0-6.6-0.1-13.4-0.2-20.5h8.8c-0.1,5.1-0.1,11-0.2,17.8c-0.1,6.8-0.1,12.3-0.1,16.6c0,10.8,0,19.2,0.1,25.2
		C535.9,1000.6,535.9,1004.6,536,1006.8z"/>
	<path fill="#666666" d="M621.3,1006.7c-0.4,0-2.7,0-6.8-0.1c-4.1,0-9.3-0.1-15.6-0.1c-4.2,0-8.1,0-11.9,0.1c-3.8,0-6.9,0.1-9.6,0.1
		c0.1-6.1,0.1-12.3,0.2-18.6c0.1-6.3,0.1-12.5,0.1-18.5c0-10.1,0-17.9-0.1-23.2c-0.1-5.3-0.1-9-0.2-11.2h8.8
		c-0.1,4.6-0.1,9.9-0.2,15.9c0,6-0.1,11-0.1,14.8c0,9.4,0,17.2,0.1,23.5c0,6.3,0.1,9.6,0.1,9.9c1.5,0,3.2,0,5.3,0c2.1,0,3.9,0,5.6,0
		c6.4,0,11.9,0,16.7-0.1c4.7-0.1,7.2-0.1,7.6-0.1V1006.7z"/>
	<path fill="#666666" d="M696.8,1006.7c-0.4,0-2.7,0-6.8-0.1c-4.1,0-9.3-0.1-15.6-0.1c-4.2,0-8.1,0-11.9,0.1c-3.8,0-6.9,0.1-9.6,0.1
		c0.1-6.1,0.1-12.3,0.2-18.6c0.1-6.3,0.1-12.5,0.1-18.5c0-10.1,0-17.9-0.1-23.2c-0.1-5.3-0.1-9-0.2-11.2h8.8
		c-0.1,4.6-0.1,9.9-0.2,15.9c0,6-0.1,11-0.1,14.8c0,9.4,0,17.2,0.1,23.5c0,6.3,0.1,9.6,0.1,9.9c1.5,0,3.2,0,5.3,0c2.1,0,3.9,0,5.6,0
		c6.4,0,11.9,0,16.7-0.1c4.7-0.1,7.2-0.1,7.6-0.1V1006.7z"/>
	<path fill="#666666" d="M786.8,935.1c0,6.8,0,12.5-0.1,17c-0.1,4.5-0.1,8.4-0.1,11.7c0,4.1,0,7.5,0,10.4c0,2.9,0,5.4,0,7.5
		c0,4.1-0.6,7.8-1.8,10.9c-1.2,3.2-3.1,5.9-5.6,8.3c-2.5,2.4-5.6,4.2-9.2,5.5s-7.8,2-12.6,2s-9-0.7-12.6-2s-6.7-3.2-9.3-5.6
		c-2.5-2.4-4.4-5.1-5.6-8.3c-1.2-3.2-1.8-6.8-1.8-10.9c0-2.1,0-4.6,0-7.5c0-2.9,0-6.3,0-10.4c0-3.3,0-7.2-0.1-11.7
		c-0.1-4.5-0.1-10.1-0.1-17h8.8c0,0.9-0.1,3.9-0.1,9.1c-0.1,5.2-0.1,12-0.1,20.5c0,2.6,0,5.2,0,8c0,2.7,0,5.6,0,8.5
		c0,6.5,1.9,11.5,5.6,14.8c3.7,3.4,8.8,5.1,15.2,5.1c6.9,0,12.1-1.6,15.6-4.8c3.5-3.2,5.2-8.2,5.2-15.1c0-2.9,0-5.7,0-8.5
		c0-2.7,0-5.4,0-8c0-8.5,0-15.4-0.1-20.8c-0.1-5.4-0.1-8.3-0.1-8.8H786.8z"/>
	<path fill="#666666" d="M863.6,986.6c0,3.7-0.9,6.9-2.6,9.7c-1.7,2.8-4.1,5-7,6.7c-2.7,1.6-5.8,2.8-9.2,3.6
		c-3.5,0.8-7.3,1.2-11.5,1.2c-2.3,0-4.7-0.1-7.1-0.2c-2.4-0.1-3.9-0.2-4.3-0.3l-0.4-7.7c0.5,0.1,1.9,0.2,4.2,0.4
		c2.3,0.2,5,0.3,8.1,0.3c1.9,0,4.3-0.2,7.3-0.7c3-0.5,5.3-1.1,6.9-1.9c2.1-1,3.7-2.3,4.8-3.7c1.1-1.5,1.7-3.3,1.7-5.6
		c0-2.4-0.6-4.4-1.7-6.1s-3-3.3-5.6-4.8c-1.7-1-3.9-2.1-6.5-3.4c-2.7-1.2-5.1-2.5-7.2-3.9c-3.6-2.2-6.2-4.6-7.8-7.2
		c-1.6-2.6-2.3-5.5-2.3-8.7c0-3.3,0.7-6.1,2.1-8.5s3.2-4.5,5.5-6.2c2.3-1.7,5.1-3,8.4-3.9c3.3-0.9,7-1.3,11-1.3
		c2.2,0,4.5,0.1,6.7,0.2c2.3,0.1,3.6,0.2,3.9,0.2l0.8,7.8c-0.3,0-1.6-0.2-3.9-0.4c-2.3-0.2-5.1-0.3-8.5-0.3c-2,0-4.1,0.2-6.2,0.7
		c-2.1,0.4-4,1.1-5.6,2.1c-1.4,0.8-2.6,2-3.6,3.4c-1,1.5-1.5,3.2-1.5,5.1c0,1.7,0.5,3.4,1.6,5.1c1.1,1.6,3,3.3,5.9,5
		c1.5,0.9,3.4,1.9,5.8,3.1c2.4,1.2,4.8,2.4,7.1,3.8c3.6,2.1,6.3,4.5,8.1,7.2C862.7,980,863.6,983.1,863.6,986.6z"/>
	<path fill="#666666" d="M948.7,942.7c-0.6,0-3,0-7.2-0.1c-4.2,0-10.6-0.1-19.1-0.1c-0.1,7.3-0.1,12.9-0.2,16.7
		c0,3.8-0.1,8.9-0.1,15.5c0,6.3,0,12.7,0.1,19.1c0.1,6.5,0.1,10.8,0.1,12.9h-8.8c0.1-2.1,0.1-6.5,0.2-13.1
		c0.1-6.6,0.1-13.1,0.1-19.4c0-6.2,0-11.1,0-14.8s-0.1-9.3-0.2-16.9c-7.6,0-13.8,0-18.5,0c-4.7,0.1-7.3,0.1-7.8,0.1v-7.4
		c3.7,0,8.1,0,13.4,0.1c5.3,0,10.9,0.1,16.8,0.1c8.6,0,15.8,0,21.6-0.1c5.8,0,8.9-0.1,9.4-0.1V942.7z"/>
	<path fill="#666666" d="M1033.4,1002.5l-6.7,5.5c-0.8-0.8-3.6-3.9-8.3-9.3c-4.8-5.4-12.1-13.8-22.1-25.1l0.1-0.5
		c1.4-0.4,3.2-1.1,5.4-2.3c2.2-1.2,4.1-2.5,5.7-3.9c1.3-1.2,2.5-2.7,3.5-4.5c1-1.8,1.5-4.2,1.5-7.2c0-2.7-0.7-5.1-2.2-7.1
		c-1.4-2-3.4-3.4-6-4.4c-2.1-0.8-4.2-1.3-6.5-1.4c-2.3-0.2-4.4-0.2-6.3-0.2c-1.3,0-2.3,0-2.9,0c-0.7,0-1.2,0-1.5,0
		c-0.1,6.8-0.1,12.8-0.1,17.9c0,5.2,0,8.8,0,11c0,4.9,0,11.5,0.1,19.9c0.1,8.4,0.1,13.7,0.1,15.8h-8.8c0-2.1,0.1-6.3,0.2-12.4
		c0.1-6.2,0.1-13.8,0.1-23c0-1.8,0-5.1,0-9.9s-0.1-13.6-0.3-26.3c0.4,0,2.1,0,5.3-0.1c3.2-0.1,6.2-0.1,8.9-0.1c3.1,0,6.1,0.2,9,0.5
		c2.9,0.4,5.8,1.1,8.5,2.3c3.5,1.5,6.3,3.7,8.4,6.6c2.1,2.9,3.1,6.3,3.1,10.2c0,5.1-1.6,9.3-4.7,12.6s-6.1,5.9-8.8,7.5v0.3
		c4.9,5.7,10.2,11.6,16.1,17.7S1033,1002,1033.4,1002.5z"/>
	<path fill="#666666" d="M1123.6,1003.9l-8.3,4.3c-0.1-0.4-1.3-3-3.4-8c-2.1-4.9-5-11.3-8.5-19h-31.7c-3.8,8.3-6.7,14.8-8.7,19.3
		c-2,4.6-3.2,7.1-3.4,7.7l-7.2-3.9c0.9-1.9,4.8-10,11.5-24.5c6.7-14.5,13.7-29.7,20.9-45.7h7c7.1,16,14.1,31.4,21,46.4
		C1119.7,995.5,1123.3,1003.3,1123.6,1003.9z M1100.4,974.4c-1.9-4.4-3.9-8.9-6-13.7c-2.1-4.7-4.3-9.7-6.6-14.9l-0.2,0
		c-1.8,3.9-4,8.7-6.5,14.5c-2.5,5.7-4.6,10.4-6.3,14l0,0.1L1100.4,974.4L1100.4,974.4z"/>
	<path fill="#666666" d="M1202.6,942.7c-0.6,0-3,0-7.2-0.1c-4.2,0-10.6-0.1-19.1-0.1c-0.1,7.3-0.1,12.9-0.2,16.7
		c0,3.8-0.1,8.9-0.1,15.5c0,6.3,0,12.7,0.1,19.1c0.1,6.5,0.1,10.8,0.1,12.9h-8.8c0.1-2.1,0.1-6.5,0.2-13.1
		c0.1-6.6,0.1-13.1,0.1-19.4c0-6.2,0-11.1,0-14.8s-0.1-9.3-0.2-16.9c-7.6,0-13.8,0-18.5,0c-4.7,0.1-7.3,0.1-7.8,0.1v-7.4
		c3.7,0,8.1,0,13.4,0.1c5.3,0,10.9,0.1,16.8,0.1c8.6,0,15.8,0,21.6-0.1c5.8,0,8.9-0.1,9.4-0.1V942.7z"/>
	<path fill="#666666" d="M1241,1006.8h-8.8c0-2.1,0.1-6,0.2-11.5c0.1-5.5,0.1-13.4,0.1-23.6c0-4.1,0-9.4-0.1-16
		c0-6.6-0.1-13.4-0.2-20.5h8.8c-0.1,5.1-0.1,11-0.2,17.8c-0.1,6.8-0.1,12.3-0.1,16.6c0,10.8,0,19.2,0.1,25.2
		C1240.9,1000.6,1240.9,1004.6,1241,1006.8z"/>
	<path fill="#666666" d="M1345.8,971c0,5.8-1,11.1-3,15.9c-2,4.8-4.6,8.8-7.7,12c-3.5,3.5-7.3,6-11.2,7.6c-4,1.6-8.2,2.4-12.7,2.4
		c-4.4,0-8.6-0.8-12.5-2.3s-7.4-3.8-10.6-6.8c-3.5-3.2-6.2-7.3-8.4-12.3c-2.1-4.9-3.2-10.5-3.2-16.7c0-5.5,0.8-10.5,2.5-15
		c1.7-4.5,4.2-8.6,7.5-12.2c3.1-3.4,6.8-5.9,11.1-7.8s8.8-2.8,13.5-2.8c4.8,0,9.3,0.9,13.4,2.6c4.1,1.7,7.6,4.1,10.6,7.2
		c3.5,3.6,6.1,7.8,7.9,12.6S1345.8,965.5,1345.8,971z M1336.8,971.8c0-4.6-0.8-9.2-2.3-13.7c-1.6-4.5-3.9-8.2-7.1-11.3
		c-2.1-2.1-4.5-3.7-7.2-4.8s-5.6-1.7-8.9-1.7c-3.2,0-6.2,0.6-9,1.7c-2.8,1.2-5.3,2.9-7.5,5.1c-2.9,2.9-5.1,6.4-6.7,10.6
		c-1.6,4.2-2.4,8.6-2.4,13.2c0,5.1,0.8,9.7,2.4,13.8s3.9,7.5,6.9,10.3c2,2,4.4,3.5,7.2,4.7c2.8,1.2,5.8,1.8,8.9,1.8
		c3.2,0,6.2-0.6,8.9-1.7c2.8-1.2,5.3-2.8,7.5-5c2.7-2.6,4.9-5.8,6.6-9.8S1336.8,976.7,1336.8,971.8z"/>
	<path fill="#666666" d="M1443.3,935.1c-0.1,5.6-0.1,12-0.2,19.2c-0.1,7.2-0.1,12.4-0.1,15.6c0,10.1,0,18.2,0.1,24.2
		c0.1,6,0.1,9.2,0.1,9.6l-7.1,3.5c-10.8-14.5-20.8-27.7-30.2-39.4s-14.8-18.5-16.2-20.3l-0.1,0.1c0,9.6,0.1,21.3,0.2,35.2
		c0.1,13.9,0.2,22,0.2,24.1h-8.3c0-0.9,0.1-4.1,0.2-9.5c0.1-5.5,0.1-13.1,0.1-22.8c0-3.9,0-9.1-0.1-15.5c0-6.4-0.1-13.3-0.2-20.5
		l8.1-3.9c0.6,0.8,6.1,7.8,16.4,20.8c10.3,13,20,25.2,29.1,36.4l0.1-0.1c0-5.5-0.1-14.7-0.2-27.7c-0.1-13-0.2-22.6-0.2-28.9H1443.3z
		"/>
</g>
</svg>
