<?xml version="1.0" encoding="utf-8"?>
<!-- Generator: Adobe Illustrator 18.1.1, SVG Export Plug-In . SVG Version: 6.00 Build 0)  -->
<!DOCTYPE svg PUBLIC "-//W3C//DTD SVG 1.1//EN" "http://www.w3.org/Graphics/SVG/1.1/DTD/svg11.dtd">
<svg version="1.1" id="Ebene_2" xmlns="http://www.w3.org/2000/svg" xmlns:xlink="http://www.w3.org/1999/xlink" x="0px" y="0px"
	 viewBox="0 0 3139 359" enable-background="new 0 0 3139 359" xml:space="preserve">
<g>
	<path fill="#666666" d="M480.3,167.4C480.3,167.4,480.3,167.4,480.3,167.4C480.3,167.4,480.3,167.4,480.3,167.4z M336.4,198
		C336.4,198.1,336.4,198,336.4,198L336.4,198z"/>
	<path fill="#666666" d="M336.4,198C336.4,198,336.3,198,336.4,198C336.4,198,336.4,198,336.4,198z"/>
	<path fill="#666666" d="M184.4,205.6c-0.1,0-0.9,0.2-0.9,0.3C183.7,205.5,184,205.7,184.4,205.6z"/>
	<path fill="#666666" d="M184.8,205.6C184.8,205.6,184.6,205.6,184.8,205.6C184.8,205.6,184.8,205.6,184.8,205.6z"/>
	<path fill="#666666" d="M336.4,198.1C336.3,198.1,336.4,198.1,336.4,198.1C336.4,198.1,336.4,198.1,336.4,198.1z"/>
	<path fill="#666666" d="M336.4,198.1C336.5,198.1,336.4,198.1,336.4,198.1C336.5,198.1,336.4,198.1,336.4,198.1z"/>
	<path fill="#666666" d="M336.5,198.1C336.6,198.1,336.5,198.1,336.5,198.1C336.5,198.1,336.5,198.1,336.5,198.1z"/>
	<path fill="#666666" d="M480.3,167.3C480.3,167.3,480.3,167.3,480.3,167.3C480.3,167.3,480.3,167.3,480.3,167.3z"/>
	<path fill="#666666" d="M75.8,222.7c11.5-6.2,27.6-5.9,40.4-5.9c15.5,0,31,1.4,46.4,3.2c9,1.1,18.1,2.3,27.1,3.8
		c1.8,0.3,3.6,0.7,5.5,0.9c3.2,0.4,5.2,1.6,5.1-1.8c-0.1-4.6-4.5-15,3.7-16c4.1-0.5,8.1,4.1,11.4,5.9c31,16.5,67.5,25.6,102.7,25.8
		c9.5,0.1,19.3-0.4,28.5-3c7.6-2.2,14.3-6.2,20.7-10.7c2.8-2,6.8-6.7,10.8-5.2c6.2,2.4,5.8,15.9,6,21c0.1,4.3-0.2,8.6-0.5,12.8
		c-0.1,1-0.9,4.1-0.4,4.9c0.7,1.3,1.3-0.1,2.9-0.7c8.3-3.5,18.8-4.8,27.6-6.7c8.7-1.9,17.5-3.4,26.4-3.6c17.3-0.3,35.1,1,52.3,3.6
		c6.3,1,13.7,1.7,18.8,5.9c3.2,2.7,8.6,8.2,5.1,12.8c-1.7,2.2-7.7,2.9-9.6,0.5c-1.3-1.6-0.4-1.8,0.6-2.9c0.7-0.8,2.1-0.6,2.6-1.5
		c0.6-1.2-1.5-4.4-2.4-5.3c-4-3.8-12.5-3.9-17.7-4.6c-9.1-1.2-18.3-1.8-27.5-2.2c-19.8-0.8-37.9,1.4-57,6.7
		c-7.9,2.2-17,7.1-25.3,7.6c-4.5,0.2-6-3-6.1-7c-0.1-7.9,1.4-15.6,0.9-23.6c-0.3-4.5-0.5-7.5-5.3-4.9c-4.2,2.3-8.7,4.3-13.2,5.9
		c-11.3,4-22.9,5.2-34.9,5.3c-30.8,0.2-60.3-6.4-89-17.2c-4.3-1.6-8.5-3.3-12.7-5c-1.4-0.6-10.7-3.3-10.9-3.8
		c1.4,5.2,1.6,14.8-6,15.4c-3,0.2-6.6-1.2-9.6-1.8c-12.9-2.6-25.8-5.1-38.8-6.8c-16.1-2.1-32.6-3.5-48.9-2.6
		c-6.8,0.4-13.6,1.1-20.2,2.9c-2.3,0.6-4.6,2.1-6.9,2.6C76.1,227.7,72.2,224.9,75.8,222.7C75.8,222.8,74.6,223.5,75.8,222.7z"/>
	<path fill="#666666" d="M426.3,178.2c0.3-3.8,7-8.7,8.1-2.8C435.3,179.8,426.6,183.2,426.3,178.2z"/>
	<g>
		<path fill="#666666" d="M453.1,313.3L453.1,313.3C453.1,313.2,453.1,313.2,453.1,313.3z"/>
		<path fill="#666666" d="M360.6,307c-6.5,1.4-15.3-1.8-21.6-3.2c-5.6-1.3-11.2-2.7-16.8-4.2c-2.4-0.7-6.1-2.5-8.5-1.4
			c-2,0.9-2.5,3.4-4.2,4.6c-1.6,1.2-4,1.7-6,1.9c-2.1,0.3-4,0.2-6.1-0.2c-4.7-1-10.9-6.3-15.7-5.8c-3,0.3-2.4,1.9-3.8,3.8
			c-1.4,1.9-4.6,3.8-6.9,4.2c-0.6,0.1-1.1,0-1.7,0.1c-9.8,0.4-20.3-1.9-30-2.5c-8.5-0.5-17-1-25.5-1.3c-15.3-0.6-30.6-1-45.9-1
			c-23.8,0-47.6,0.8-71.3,2.4c-2.5,0.2-10.5-0.6-12.4,0.9c-2.4,2-0.6,2.4,1.3,2.8c3.9,0.7,8.8-0.1,12.8-0.2
			c4.6-0.1,9.3-0.1,13.9-0.1c15.9-0.1,31.9,0,47.8,0.3c16.1,0.3,32.2,1,48.3,1.8c14.3,0.7,28.5,1.5,42.8,2.5
			c6.2,0.4,13.7,2.3,20,1.5c3.4-0.4,6.7-2.2,9.3-4.3c0.7-0.5,2.5-2.9,3.1-3.1c1.1-0.3,5.7,2.7,7.1,3.2c3.3,1.2,6.7,2.1,10.3,2.1
			c3.5,0,7.4-0.8,10.5-2.3c1.7-0.8,2.7-2.1,4.2-3.1c2.8-1.7-0.2-0.9,2.4-0.9c1.1,0,3,0.9,4.1,1.2c6.3,1.9,12.6,3.7,19,5.3
			c6.3,1.5,15,4.4,21.4,2.2c3.1-1.1,6-4.4,6.5-7.7c4.7,1.4,30.1,11.9,31.9-0.2c7.6,2.2,15.1,4.6,22.5,7.6c5,2.1,10,3.9,15.4,4.5
			c5,0.5,12.5,0.5,14.5-5.3c4.7-13.7-18.7-18.5-27.2-19.2c-2.4-0.2-6.1-0.7-8.1,1c-1.7,1.5-2.5,5.2-0.7,7c-6.6-1.7-15.1-4.8-22.1-5
			c-4.4-0.1-5.6,4.3-2.6,6.9c-0.1-0.1-0.1-0.1-0.3-0.1c0.6,0.3,0.9,0.5,1.2,1.1c-4.8,0.7-10.4-0.9-15.1-1.7
			c-3.3-0.6-11.7-3.8-14.4-1 M277.9,303C277.9,302.7,278,303.1,277.9,303C277.9,303,277.9,302.9,277.9,303z M284.8,302.7
			C284.8,302.8,284.8,302.3,284.8,302.7C284.8,302.7,284.8,302.4,284.8,302.7z M281.5,305.6C281.5,305.6,281.5,305.6,281.5,305.6
			L281.5,305.6z M310.8,301.6C310.8,301.5,310.8,301.5,310.8,301.6L310.8,301.6z M360.3,307.2C360.3,307.3,360.3,307.3,360.3,307.2
			L360.3,307.2z M436.2,307.5c-5.5-1.1-10.6-3.3-16-4.8c3-0.8,1.4-2,5.1-1c2.3,0.6,4.5,1.4,6.8,2.1c3.2,1,6.5,2.1,9,4.3
			C440.8,308.4,436.5,307.5,436.2,307.5C434.9,307.2,437.4,307.7,436.2,307.5z M443.2,310.8C443.3,310.9,443.3,310.9,443.2,310.8
			C443.3,310.9,443.3,310.9,443.2,310.8z M444.8,307.8C444.8,307.8,444.8,307.8,444.8,307.8L444.8,307.8z"/>
		<path fill="#666666" d="M392.5,303.7C392.5,303.7,392.5,303.7,392.5,303.7C392.5,303.7,392.5,303.7,392.5,303.7z"/>
	</g>
	<path fill="#666666" d="M237.1,76.8c-0.7-2.3-2.5-2-4.2-1.8c-3.7,0.3-7.2,1.5-11,1.4c-6.9-0.3-14-3.3-17.8-9.3
		c-4.5-7.2-2.8-16.6-0.1-24.1c0.5-1.5,3.1-5.2,2.3-7.2c-1-2.8-4.4-1-6,0.1c-6.6,4.4-11.4,12.1-13.7,19.5
		c-3.4,11.1-0.1,22.9,9.3,29.8c6.4,4.7,14.5,6,22.2,4.4c5.8-1.2,11.5-3.9,16.1-7.7C235.5,80.7,237.8,79.1,237.1,76.8
		C237,76.3,237.3,77.3,237.1,76.8z M202.4,35.8C202.4,35.8,202.4,35.8,202.4,35.8L202.4,35.8z M224.7,81.7c-9.4,3.8-20.4,3.4-27.8-4
		c-10.1-10.1-5.8-26,2.8-35.6c-3.5,9-5.7,20.2,0,28.8c1.1,1.7,2.5,3.2,4.1,4.6c3,2.6,6.5,4.4,10.4,5.3
		C216.8,81.3,223.5,82.2,224.7,81.7C224.2,81.9,224.9,81.6,224.7,81.7z M234.8,79.7L234.8,79.7C234.9,79.6,234.9,79.7,234.8,79.7z"
		/>
	<path fill="#666666" d="M537.2,233.9c-3.1-6.4-19-5-24.9-5.2c-12.3-0.4-24.7-0.8-37-0.7c-12.1,0.1-24.3,0.9-36.4,2.1
		c-6,0.6-12,1.3-17.9,2.1c-5.6,0.7-12.5,0.7-17.7,2.9c-0.1-3.7-0.4-7.4-0.6-11c-0.1-1.6-0.6-3.8-0.3-5.4c0.5-2.6-0.8-1.4,1.6-2.9
		c2.4-1.4,6.4-1.9,9-2.7c4.4-1.4,8.8-2.9,13.1-4.6c14.4-5.9,28.3-14,41.5-22.2c7-4.4,20.6-10.6,21.3-20.6c0.3-5.1-2.9-7.6-7.5-7
		c-7.8,1.1-15.6,3.5-23.4,4.8c-13.6,2.2-27.2,3.2-40.9,3.2c-4,0-8.2-0.8-12.2-0.6c-0.9,0-1.7,0.2-2.4,0.4
		c-24.5-7.4-50.1-12.1-75.6-14.4c-1.3-0.1-3.4,0.1-4.5-0.4c-1.2-0.6-0.7-0.7-1.6-1.8c-1.9-2.2-3-5.1-5-7.3c-2.1-2.3-4.5-4.4-7.1-6.1
		c-3.1-2.1-9.3-3.4-7.3,2.6c1.4,4,6.5,8.5,9.3,11.7c-14.1-1.1-28.1-2.3-42.2-3c-4.9-0.2-14.2,1.2-18.1-1.2c-3.1-1.8-5-5.9-8.5-7.8
		c-3.5-1.9-11.5-4.4-14.3-1.3c-4,4.4,7.3,7.1,9.7,8.2c2.9,1.2,5.6,4.7,8.6,6.3c6,3.4,15.7,2.1,22.3,2.3c18.2,0.8,36.4,1.3,54.6,2.8
		c16.7,1.4,33.1,4.1,49.4,7.9c8.2,1.9,16.4,4.1,24.4,6.7c-0.2,0.3-0.4,0.6-0.6,0.9c-36.4-7.4-73.2-11.3-110.4-11.7
		c-8.9-0.1-17.9-0.2-26.8,0.1c-4.8,0.2-8.5,2.7-11.4,6.6c-2.1,2.9-5.3,12,1.9,10.1c2.3-0.6,4.2-2.9,5.6-4.7c1-1.3,1.8-2.7,2.4-4.2
		c1.1-2.6,0.6-2.5,3.3-2.8c9.6-1.1,20.4,0.5,30.1,0.8c11.9,0.4,23.8,0.8,35.7,1.7c-1.2,1-2.8,2.9-3.9,3.7c-1.7,1.4-4.6,2.7-5.7,4.5
		c-2.2,3.5,0.8,4.7,3.9,4.1c2.8-0.5,5.4-1.8,7.6-3.5c2-1.5,3.9-3.3,5.4-5.4c2.4-3.2,2.8-2.5,7.1-2.1c12.2,1.3,24.3,2.9,36.4,4.7
		c5.2,0.8,10.4,1.6,15.5,2.4c-7.8,9.5-19.3,13.5-31.2,16.6c-4,1.1-7.3,0.8-11.5-0.1c-4.5-1-8.9-4-13.5-4.1c-4.5-0.1-8.5,3.2-12.4,5
		c-4.8,2.3-10.1,2.3-15.3,2.3c-16,0.1-32.7-1.9-48.2-5.9c-15.9-4.1-31-11.3-45.6-18.5c-6.2-3.1-12.7-7.7-19.4-9.6
		c-3.5-1-6.2,1.4-7.5,4.8c-1.8,5.1-0.1,12.3-0.2,17.6c0,3-0.4,6-1,8.9c-0.5,2.7-1,9.5-3.3,11.3c-1.5,1.3-6.6,0.6-8.5,0.6
		c-4.1,0-8.2,0-12.2,0c-8.3,0-16.5-0.1-24.8-0.2c-14.9-0.1-29.9-0.5-44.9,0.2c-2.6,0.1-37,4.2-32.7,10.4c1.6,2.3,12.1-3.3,14.2-3.8
		c7.4-1.8,15-2.3,22.6-2.4c17.9-0.3,35.9,0.5,53.8,1.3c9.1,0.4,18.2,0.7,27.3,1.4c2.9,0.2,6.2,1.4,9,0.1c6.1-2.8,8.5-13.8,9.8-19.7
		c1.5-6.8,1.4-13.9,0.9-20.8c21.4,10.7,43.1,22.8,66.7,27.8c11.9,2.5,24.1,4.4,36.2,5c8.5,0.4,18.4,1.1,26.3-2.6
		c2.9-1.3,5.6-3.8,8.8-4.4c3.6-0.7,8.3,1.1,11.8,1.8c8.3,1.6,13.7,0.6,21.7-2c8.3-2.6,17.1-5.7,23.8-11.5c4.6-4,8.6-11.2,14.5-12.6
		c6.4-1.6,13.8-1.2,20.3-1.9c5.7-0.6,11.5-1.2,17.2-1.9c11.9-1.6,23.8-4.1,35.8-5.4c0.3,0-0.9,2.5-1.4,3c-3.1,4-8.9,6.9-13.1,9.6
		c-11,7.1-22.3,13.6-34,19.6c-10.1,5.2-20.9,9.4-32,12c-5.7,1.3-6,4.1-6.3,10.6c-0.3,7.2-1.6,16-0.7,22.8c1.6,11.4,11-0.3,14.8-2
		c4.4-1.9,10.4-2.2,15.1-2.9c6.5-1,13-1.9,19.5-2.6c10.9-1.2,21.9-2.1,32.9-2.2c12.8-0.1,25.7,0.2,38.5,0.7
		c4.5,0.2,11.6-0.4,15.7,1.7c1,0.5,1.4,1.7,2.4,2.1C535.3,238.1,538.9,237.2,537.2,233.9z"/>
	<path fill="#666666" d="M316.8,299.4"/>
</g>
<text transform="matrix(1 0 0 1 630.5146 248.1976)" fill="#666666" font-family="'Skia-Regular'" font-size="121.8324" letter-spacing="18">CHRISTIAN HAGER ILLUSTRATION</text>
</svg>
